<svg xmlns="http://www.w3.org/2000/svg" xmlns:xlink="http://www.w3.org/1999/xlink" width="500" zoomAndPan="magnify" viewBox="0 0 375 374.999991" height="500" preserveAspectRatio="xMidYMid meet" version="1.0"><defs><g/><clipPath id="7823dd4aaa"><path d="M 24.761719 24.761719 L 350.238281 24.761719 L 350.238281 350.238281 L 24.761719 350.238281 Z M 24.761719 24.761719 " clip-rule="nonzero"/></clipPath><clipPath id="bfce025cf9"><path d="M 187.5 24.761719 C 97.621094 24.761719 24.761719 97.621094 24.761719 187.5 C 24.761719 277.378906 97.621094 350.238281 187.5 350.238281 C 277.378906 350.238281 350.238281 277.378906 350.238281 187.5 C 350.238281 97.621094 277.378906 24.761719 187.5 24.761719 Z M 187.5 24.761719 " clip-rule="nonzero"/></clipPath></defs><g clip-path="url(#7823dd4aaa)"><g clip-path="url(#bfce025cf9)"><path fill="#5e17eb" d="M 24.761719 24.761719 L 350.238281 24.761719 L 350.238281 350.238281 L 24.761719 350.238281 Z M 24.761719 24.761719 " fill-opacity="1" fill-rule="nonzero"/></g></g><g fill="#ffffff" fill-opacity="1"><g transform="translate(78.858472, 300.865061)"><g><path d="M 196.8125 -94.625 C 199.425781 -96.84375 202.191406 -97.546875 205.109375 -96.734375 C 208.035156 -95.929688 209.5 -94.019531 209.5 -91 C 209.5 -78.707031 207.632812 -66.816406 203.90625 -55.328125 C 200.175781 -43.835938 194.484375 -33.554688 186.828125 -24.484375 C 179.171875 -15.421875 169.492188 -8.265625 157.796875 -3.015625 C 146.109375 2.222656 132.207031 4.84375 116.09375 4.84375 C 100.363281 4.84375 85.644531 2.070312 71.9375 -3.46875 C 58.238281 -9.019531 46.195312 -16.832031 35.8125 -26.90625 C 25.4375 -36.976562 17.375 -48.867188 11.625 -62.578125 C 5.882812 -76.285156 3.015625 -91.203125 3.015625 -107.328125 C 3.015625 -122.234375 5.882812 -136.238281 11.625 -149.34375 C 17.375 -162.445312 25.4375 -174.085938 35.8125 -184.265625 C 46.195312 -194.441406 58.394531 -202.398438 72.40625 -208.140625 C 86.414062 -213.890625 101.78125 -216.765625 118.5 -216.765625 C 132.40625 -216.765625 144.847656 -214.644531 155.828125 -210.40625 C 166.816406 -206.175781 176.140625 -200.6875 183.796875 -193.9375 C 191.460938 -187.1875 197.3125 -179.828125 201.34375 -171.859375 C 205.375 -163.898438 207.390625 -156.296875 207.390625 -149.046875 C 207.390625 -134.535156 204.210938 -122.945312 197.859375 -114.28125 C 191.515625 -105.613281 183.503906 -99.363281 173.828125 -95.53125 C 164.148438 -91.695312 154.273438 -89.78125 144.203125 -89.78125 C 135.734375 -89.78125 127.617188 -91.796875 119.859375 -95.828125 C 112.109375 -99.859375 105.765625 -105.550781 100.828125 -112.90625 C 95.890625 -120.269531 93.421875 -128.890625 93.421875 -138.765625 C 93.421875 -147.222656 95.429688 -154.878906 99.453125 -161.734375 C 103.484375 -168.585938 108.972656 -174.03125 115.921875 -178.0625 C 122.878906 -182.09375 130.492188 -184.109375 138.765625 -184.109375 C 147.023438 -184.109375 154.328125 -182.242188 160.671875 -178.515625 C 167.023438 -174.785156 172.164062 -170.097656 176.09375 -164.453125 C 180.03125 -158.816406 182.398438 -153.273438 183.203125 -147.828125 C 183.804688 -144.398438 185.164062 -142.484375 187.28125 -142.078125 C 189.394531 -141.679688 191.410156 -142.238281 193.328125 -143.75 C 195.242188 -145.257812 195.898438 -147.125 195.296875 -149.34375 C 193.078125 -159.820312 188.992188 -168.535156 183.046875 -175.484375 C 177.097656 -182.441406 170.242188 -187.632812 162.484375 -191.0625 C 154.734375 -194.488281 146.828125 -196.203125 138.765625 -196.203125 C 128.484375 -196.203125 119.007812 -193.628906 110.34375 -188.484375 C 101.675781 -183.347656 94.671875 -176.445312 89.328125 -167.78125 C 83.992188 -159.113281 81.328125 -149.441406 81.328125 -138.765625 C 81.328125 -128.484375 83.992188 -118.65625 89.328125 -109.28125 C 94.671875 -99.914062 102.078125 -92.304688 111.546875 -86.453125 C 121.023438 -80.609375 131.910156 -77.6875 144.203125 -77.6875 C 151.460938 -77.6875 159.878906 -78.691406 169.453125 -80.703125 C 179.023438 -82.722656 188.144531 -87.363281 196.8125 -94.625 Z M 196.8125 -94.625 "/></g></g></g></svg>